<?xml version="1.0" standalone="no"?>
<!DOCTYPE svg PUBLIC "-//W3C//DTD SVG 20010904//EN"
 "http://www.w3.org/TR/2001/REC-SVG-20010904/DTD/svg10.dtd">
<svg version="1.0" xmlns="http://www.w3.org/2000/svg"
 width="300.000000pt" height="294.000000pt" viewBox="0 0 300.000000 294.000000"
 preserveAspectRatio="xMidYMid meet">
<metadata>
Created by potrace 1.10, written by Peter Selinger 2001-2011
</metadata>
<g transform="translate(0.000000,294.000000) scale(0.100000,-0.100000)"
fill="#000000" stroke="none">
<path d="M213 2912 c-162 -4 -143 185 -143 -1432 l0 -1377 24 -22 25 -23 1348
1 c741 1 1365 1 1385 1 25 0 44 7 58 22 20 22 20 27 20 1403 l0 1382 -24 22
-24 23 -1284 1 c-705 1 -1329 1 -1385 -1z m2677 -1427 l0 -1395 -1390 0 -1390
0 0 1395 0 1395 1390 0 1390 0 0 -1395z"/>
<path d="M280 2733 c-8 -3 -18 -11 -22 -17 -21 -31 -4 -57 121 -179 l128 -125
-128 -128 c-127 -127 -145 -154 -117 -182 28 -28 55 -10 182 117 l129 129 126
-129 c102 -105 130 -129 153 -129 21 0 32 7 40 26 11 24 6 31 -122 159 l-134
135 132 133 c73 74 132 139 132 145 0 15 -37 52 -52 52 -6 0 -71 -59 -145
-132 l-133 -132 -133 132 c-74 73 -136 132 -138 131 -2 0 -11 -3 -19 -6z m145
-155 c63 -61 121 -115 129 -120 10 -5 25 -4 40 4 24 13 116 94 116 103 0 6
110 109 127 119 33 18 4 -17 -104 -129 -112 -114 -126 -139 -104 -174 5 -8 57
-62 116 -122 152 -153 128 -163 -28 -11 -69 67 -132 122 -140 122 -20 0 -58
-31 -165 -135 -51 -49 -98 -92 -104 -94 -23 -8 15 38 102 124 86 85 120 129
120 155 0 7 -54 67 -120 135 -66 68 -120 126 -120 129 0 21 36 -8 135 -106z"/>
<path d="M1012 2718 c-9 -9 -12 -106 -12 -375 l0 -363 -360 0 c-198 1 -365 -2
-370 -5 -16 -10 -12 -52 6 -59 9 -3 175 -6 370 -6 l354 0 0 -425 0 -425 -354
0 c-195 0 -361 -3 -370 -6 -20 -8 -21 -48 -2 -63 11 -9 107 -11 370 -9 l356 3
0 -361 c0 -318 2 -363 16 -375 11 -9 20 -10 32 -2 15 9 17 47 20 374 l2 364
430 0 430 0 2 -364 c3 -327 5 -365 20 -374 12 -8 21 -7 32 2 14 12 16 57 16
375 l0 361 356 -3 c263 -2 359 0 370 9 19 15 18 55 -2 63 -9 3 -175 6 -370 6
l-354 0 0 425 0 425 354 0 c195 0 361 3 370 6 18 7 22 49 6 59 -5 3 -172 6
-370 5 l-360 0 -2 366 c-3 330 -5 368 -20 377 -12 8 -21 7 -32 -2 -14 -12 -16
-58 -16 -377 l0 -364 -430 0 -430 0 0 363 c0 365 -2 387 -35 387 -6 0 -16 -5
-23 -12z m52 -760 c8 -14 7 -22 -7 -35 -16 -16 -18 -16 -39 4 -18 19 -19 24
-8 38 16 19 39 16 54 -7z m926 6 c11 -13 10 -19 -8 -36 -17 -18 -23 -19 -36
-8 -19 15 -20 32 -4 48 16 16 33 15 48 -4z m-60 -479 l0 -425 -430 0 -430 0 0
425 0 425 430 0 430 0 0 -425z m-872 -446 c23 -37 -20 -67 -48 -34 -10 13 -10
19 5 35 23 25 27 25 43 -1z m927 -39 c-19 -21 -19 -21 -39 -1 -19 20 -19 21
-1 41 19 21 19 21 39 1 19 -20 19 -21 1 -41z"/>
<path d="M1434 1820 c-102 -21 -203 -102 -246 -195 -19 -40 -23 -67 -23 -140
0 -117 24 -174 106 -249 119 -111 283 -124 418 -34 63 42 99 87 128 160 22 52
25 73 21 137 -6 95 -34 160 -95 223 -78 79 -206 120 -309 98z m180 -49 c69
-31 119 -75 156 -137 33 -54 35 -64 35 -144 0 -74 -4 -92 -28 -140 -33 -64
-94 -123 -157 -151 -65 -29 -186 -28 -248 3 -59 29 -111 80 -148 143 -26 45
-29 59 -29 140 1 68 5 98 19 125 85 158 255 227 400 161z"/>
<path d="M1412 1748 c-71 -22 -134 -76 -164 -143 -33 -73 -31 -182 4 -250 50
-96 133 -146 243 -148 86 -2 142 20 201 79 79 80 102 175 68 290 -40 139 -203
218 -352 172z m193 -37 c79 -35 135 -116 143 -206 9 -103 -39 -191 -130 -240
-155 -85 -349 18 -365 193 -18 197 170 332 352 253z"/>
<path d="M2108 854 c-11 -24 -6 -31 122 -159 l134 -135 -132 -133 c-73 -74
-132 -140 -132 -149 0 -18 31 -48 50 -48 7 0 73 59 147 132 l133 132 135 -134
c128 -128 135 -133 159 -122 51 23 36 50 -104 188 l-130 128 130 131 c128 128
146 155 118 183 -28 28 -55 10 -183 -118 l-131 -130 -128 130 c-138 139 -165
154 -188 104z m168 -126 c137 -134 139 -135 178 -114 17 9 78 64 136 121 58
58 107 100 109 94 2 -6 -46 -61 -107 -122 -60 -62 -113 -122 -116 -134 -9 -29
2 -44 124 -170 87 -89 113 -123 95 -123 -5 0 -12 7 -147 138 -73 70 -102 92
-122 92 -22 0 -54 -26 -147 -117 -65 -64 -122 -114 -125 -110 -4 3 46 60 110
126 93 96 116 126 116 149 0 23 -22 50 -115 143 -63 63 -115 120 -115 127 0
20 15 8 126 -100z"/>
</g>
</svg>
